<svg width="32" height="32" viewBox="0 0 32 32" fill="none" xmlns="http://www.w3.org/2000/svg">
<path d="M4 8.8C4 7.52696 4.50571 6.30606 5.40589 5.40589C6.30606 4.50571 7.52696 4 8.8 4H23.2C24.473 4 25.6939 4.50571 26.5941 5.40589C27.4943 6.30606 28 7.52696 28 8.8V14.8H4V8.8Z" stroke="#D9DCEA" stroke-width="2" stroke-linecap="round" stroke-linejoin="round"/>
<path d="M23.7992 21.3999H20.1992" stroke="#D9DCEA" stroke-width="2" stroke-linecap="round"/>
<path d="M16 14.8H28V23.2C28 24.4731 27.4943 25.694 26.5941 26.5942C25.6939 27.4943 24.473 28 23.2 28H16V14.8ZM16 14.8H4V23.2C4 24.4731 4.50571 25.694 5.40589 26.5942C6.30606 27.4943 7.52696 28 8.8 28H16V14.8Z" stroke="#D9DCEA" stroke-width="2" stroke-linecap="round" stroke-linejoin="round"/>
<path d="M7.49211 22.493C7.10159 22.8835 7.10159 23.5167 7.49211 23.9072C7.88264 24.2977 8.5158 24.2977 8.90633 23.9072L7.49211 22.493ZM12.5063 20.3072C12.8969 19.9167 12.8969 19.2835 12.5063 18.893C12.1158 18.5025 11.4826 18.5025 11.0921 18.893L12.5063 20.3072ZM11.0921 23.9072C11.4826 24.2977 12.1158 24.2977 12.5063 23.9072C12.8969 23.5167 12.8969 22.8835 12.5063 22.493L11.0921 23.9072ZM8.90633 18.893C8.5158 18.5025 7.88264 18.5025 7.49211 18.893C7.10159 19.2835 7.10159 19.9167 7.49211 20.3072L8.90633 18.893ZM8.90633 23.9072L10.7063 22.1072L9.29211 20.693L7.49211 22.493L8.90633 23.9072ZM10.7063 22.1072L12.5063 20.3072L11.0921 18.893L9.29211 20.693L10.7063 22.1072ZM9.29211 22.1072L11.0921 23.9072L12.5063 22.493L10.7063 20.693L9.29211 22.1072ZM10.7063 20.693L8.90633 18.893L7.49211 20.3072L9.29211 22.1072L10.7063 20.693Z" fill="#D9DCEA"/>
</svg>
