<svg width="18" height="18" viewBox="0 0 18 18" fill="none" xmlns="http://www.w3.org/2000/svg">
<g opacity="0.9">
<path fill-rule="evenodd" clip-rule="evenodd" d="M7.54079 1.75853C7.94791 1.41154 8.46535 1.22095 9.00029 1.22095C9.53522 1.22095 10.0527 1.41154 10.4598 1.75853L11.413 2.57153C11.5333 2.67411 11.6829 2.73606 11.8405 2.74853L13.0893 2.84828C13.6223 2.89096 14.1226 3.12204 14.5007 3.50012C14.8788 3.87819 15.1099 4.37856 15.1525 4.91153L15.2523 6.16103C15.2649 6.31836 15.3269 6.4677 15.4293 6.58778L16.2423 7.54103C16.5893 7.94816 16.7799 8.4656 16.7799 9.00053C16.7799 9.53547 16.5893 10.0529 16.2423 10.46L15.4293 11.4133C15.3267 11.5336 15.2648 11.6832 15.2523 11.8408L15.1525 13.0895C15.1099 13.6225 14.8788 14.1229 14.5007 14.5009C14.1226 14.879 13.6223 15.1101 13.0893 15.1528L11.8398 15.2525C11.6825 15.2652 11.5331 15.3271 11.413 15.4295L10.4598 16.2425C10.0527 16.5895 9.53522 16.7801 9.00029 16.7801C8.46535 16.7801 7.94791 16.5895 7.54079 16.2425L6.58754 15.4295C6.46725 15.327 6.31763 15.265 6.16004 15.2525L4.91129 15.1528C4.37831 15.1101 3.87795 14.879 3.49987 14.5009C3.12179 14.1229 2.89071 13.6225 2.84804 13.0895L2.74829 11.84C2.73566 11.6827 2.67372 11.5334 2.57129 11.4133L1.75829 10.46C1.41129 10.0529 1.2207 9.53547 1.2207 9.00053C1.2207 8.4656 1.41129 7.94816 1.75829 7.54103L2.57129 6.58778C2.67387 6.4675 2.73582 6.31788 2.74829 6.16028L2.84804 4.91153C2.89071 4.37856 3.12179 3.87819 3.49987 3.50012C3.87795 3.12204 4.37831 2.89096 4.91129 2.84828L6.16079 2.74853C6.31812 2.73591 6.46746 2.67397 6.58754 2.57153L7.54079 1.75853ZM11.7805 8.03078C11.9172 7.88933 11.9928 7.69988 11.991 7.50323C11.9893 7.30658 11.9105 7.11848 11.7714 6.97942C11.6323 6.84036 11.4442 6.76149 11.2476 6.75978C11.0509 6.75807 10.8615 6.83366 10.72 6.97028L8.25029 9.44003L7.28054 8.47028C7.13909 8.33366 6.94964 8.25807 6.75299 8.25978C6.55634 8.26149 6.36823 8.34036 6.22918 8.47942C6.09012 8.61847 6.01124 8.80658 6.00953 9.00323C6.00782 9.19988 6.08342 9.38933 6.22004 9.53078L7.72004 11.0308C7.86068 11.1714 8.05142 11.2504 8.25029 11.2504C8.44916 11.2504 8.63989 11.1714 8.78054 11.0308L11.7805 8.03078Z" fill="white"/>
</g>
</svg>
