<svg width="18" height="18" viewBox="0 0 18 18" fill="none" xmlns="http://www.w3.org/2000/svg">
<g opacity="0.9">
<path d="M8.61611 16.3153C8.83661 16.4331 9.11336 16.4323 9.33386 16.3146C15.3429 13.0866 15.7696 6.77984 15.7644 4.98659C15.7638 4.84246 15.7212 4.70163 15.6418 4.58134C15.5624 4.46105 15.4497 4.36652 15.3174 4.30934L9.27986 1.63484C9.18378 1.59248 9.07991 1.57067 8.97491 1.5708C8.86991 1.57093 8.76609 1.593 8.67011 1.63559L2.67461 4.31009C2.54426 4.3673 2.4331 4.46078 2.35438 4.57939C2.27566 4.698 2.2327 4.83674 2.23061 4.97909C2.20511 6.76334 2.56436 13.0836 8.61611 16.3153ZM6.50561 7.71959L8.22536 9.43934L11.4451 6.21959L12.5056 7.28009L8.22536 11.5603L5.44511 8.78009L6.50561 7.71959Z" fill="#FFFFFF"/>
</g>
</svg>
