<svg width="32" height="32" viewBox="0 0 32 32" fill="none" xmlns="http://www.w3.org/2000/svg">
<path fill-rule="evenodd" clip-rule="evenodd" d="M13.5376 25.8462C17.616 25.8462 20.9222 22.54 20.9222 18.4616C20.9222 14.3832 17.616 11.077 13.5376 11.077C9.45916 11.077 6.15294 14.3832 6.15294 18.4616C6.15294 22.54 9.45916 25.8462 13.5376 25.8462ZM13.5376 28.3078C18.9755 28.3078 23.3837 23.8995 23.3837 18.4616C23.3837 13.0237 18.9755 8.61548 13.5376 8.61548C8.09965 8.61548 3.69141 13.0237 3.69141 18.4616C3.69141 23.8995 8.09965 28.3078 13.5376 28.3078Z" fill="#A2A2A2"/>
<path fill-rule="evenodd" clip-rule="evenodd" d="M23.3656 19.0587C24.8867 17.706 25.845 15.7342 25.845 13.5385C25.845 9.46014 22.5388 6.15392 18.4604 6.15392C16.2647 6.15392 14.2929 7.11217 12.9402 8.63324C11.7143 8.7066 10.5489 9.0042 9.48438 9.48561C11.0293 6.0694 14.4673 3.69238 18.4604 3.69238C23.8982 3.69238 28.3065 8.10063 28.3065 13.5385C28.3065 17.5316 25.9295 20.9696 22.5133 22.5145C22.9947 21.45 23.2923 20.2846 23.3656 19.0587Z" fill="#A2A2A2"/>
<path d="M14.9023 17.4703L12.371 16.7297C12.0781 16.6453 11.8741 16.3711 11.8741 16.0664C11.8741 15.6844 12.1835 15.375 12.5656 15.375H14.1195C14.4054 15.375 14.6866 15.4617 14.921 15.6211C15.064 15.7172 15.2562 15.6937 15.3781 15.5742L16.1937 14.7773C16.3601 14.6156 16.3366 14.3461 16.1515 14.2031C15.5773 13.7531 14.8601 13.5023 14.1241 13.5V12.375C14.1241 12.1687 13.9554 12 13.7491 12H12.9991C12.7929 12 12.6241 12.1687 12.6241 12.375V13.5H12.5656C11.0726 13.5 9.87258 14.782 10.0109 16.3031C10.1093 17.3836 10.9343 18.2625 11.9749 18.5672L14.3773 19.2703C14.6702 19.357 14.8741 19.6289 14.8741 19.9336C14.8741 20.3156 14.5648 20.625 14.1827 20.625H12.6288C12.3429 20.625 12.0616 20.5383 11.8273 20.3789C11.6843 20.2828 11.4921 20.3062 11.3702 20.4258L10.5546 21.2227C10.3882 21.3844 10.4116 21.6539 10.5968 21.7969C11.171 22.2469 11.8882 22.4977 12.6241 22.5V23.625C12.6241 23.8313 12.7929 24 12.9991 24H13.7491C13.9554 24 14.1241 23.8313 14.1241 23.625V22.4953C15.2163 22.4742 16.2406 21.825 16.6015 20.7914C17.1054 19.3477 16.2593 17.8664 14.9023 17.4703Z" fill="#A2A2A2"/>
</svg>
