<svg width="32" height="32" viewBox="0 0 32 32" fill="none" xmlns="http://www.w3.org/2000/svg">
<path fill-rule="evenodd" clip-rule="evenodd" d="M6.33398 8.19358C6.33398 7.46521 6.92444 6.87476 7.65281 6.87476H23.8846C24.613 6.87476 25.2034 7.4652 25.2034 8.19358V14.307C25.9157 14.5105 26.5873 14.8103 27.2034 15.1914V8.19358C27.2034 6.36065 25.7175 4.87476 23.8846 4.87476H7.65281C5.81987 4.87476 4.33398 6.36064 4.33398 8.19358V24.4253C4.33398 26.2583 5.81988 27.7442 7.65281 27.7442H17.4328C16.8332 27.1628 16.3243 26.4883 15.9294 25.7442H7.65281C6.92443 25.7442 6.33398 25.1537 6.33398 24.4253V8.19358Z" fill="#D9DCEA"/>
<path d="M5.33398 12.8311H26.2034" stroke="#D9DCEA" stroke-width="2" stroke-linecap="round" stroke-linejoin="round"/>
<path d="M20.4062 3.55566V8.19331" stroke="#D9DCEA" stroke-width="2" stroke-linecap="round" stroke-linejoin="round"/>
<path d="M11.1309 3.55566V8.19331" stroke="#D9DCEA" stroke-width="2" stroke-linecap="round" stroke-linejoin="round"/>
<circle cx="23" cy="22" r="6.25" stroke="#D9DCEA" stroke-width="1.5"/>
<path d="M26 21.9982V21.9307C25.9963 21.8588 25.9801 21.7879 25.952 21.7209C25.9306 21.6695 25.9009 21.6215 25.864 21.5785C25.8428 21.5443 25.8187 21.5117 25.792 21.4811L23.504 19.233C23.4315 19.1616 23.3447 19.1043 23.2486 19.0644C23.1525 19.0245 23.0489 19.0027 22.9438 19.0002C22.7315 18.9953 22.5258 19.0696 22.372 19.2067C22.2182 19.3439 22.1288 19.5326 22.1236 19.7315C22.1183 19.9303 22.1976 20.123 22.344 20.2671L23.328 21.2488H20.8C20.5878 21.2488 20.3843 21.3277 20.2343 21.4683C20.0843 21.6088 20 21.7994 20 21.9982C20 22.1969 20.0843 22.3875 20.2343 22.528C20.3843 22.6686 20.5878 22.7475 20.8 22.7475H23.272L22.232 23.7142C22.157 23.7839 22.0975 23.8668 22.0569 23.9581C22.0163 24.0494 21.9954 24.1474 21.9954 24.2463C21.9954 24.3452 22.0163 24.4432 22.0569 24.5345C22.0975 24.6258 22.157 24.7087 22.232 24.7783C22.3064 24.8486 22.3949 24.9043 22.4923 24.9424C22.5898 24.9804 22.6944 25 22.8 25C22.9056 25 23.0102 24.9804 23.1077 24.9424C23.2051 24.9043 23.2936 24.8486 23.368 24.7783L25.768 22.5302C25.84 22.4612 25.897 22.3797 25.936 22.2904C25.978 22.198 25.9998 22.0986 26 21.9982Z" fill="#D9DCEA"/>
</svg>
