<svg width="32" height="32" viewBox="0 0 32 32" fill="none" xmlns="http://www.w3.org/2000/svg">
<path d="M26.6673 28L26.2201 28.8944C26.5301 29.0494 26.8982 29.0329 27.1931 28.8507C27.4879 28.6684 27.6673 28.3466 27.6673 28H26.6673ZM24.0007 4V3V4ZM8.00065 4V3V4ZM5.33398 6.66667H4.33398H5.33398ZM5.33398 28H4.33398C4.33398 28.3466 4.51344 28.6684 4.80825 28.8507C5.10307 29.0329 5.47121 29.0494 5.7812 28.8944L5.33398 28ZM10.6673 25.3333L11.1145 24.4389C10.833 24.2981 10.5016 24.2981 10.2201 24.4389L10.6673 25.3333ZM16.0007 28L15.5534 28.8944C15.835 29.0352 16.1663 29.0352 16.4479 28.8944L16.0007 28ZM21.334 25.3333L21.7812 24.4389C21.4997 24.2981 21.1683 24.2981 20.8868 24.4389L21.334 25.3333ZM27.6673 28V6.66667H25.6673V28H27.6673ZM27.6673 6.66667C27.6673 5.69421 27.281 4.76157 26.5934 4.07394L25.1792 5.48816C25.4917 5.80072 25.6673 6.22464 25.6673 6.66667H27.6673ZM26.5934 4.07394C25.9057 3.38631 24.9731 3 24.0007 3V5C24.4427 5 24.8666 5.17559 25.1792 5.48816L26.5934 4.07394ZM24.0007 3H8.00065V5H24.0007V3ZM8.00065 3C7.02819 3 6.09556 3.38631 5.40793 4.07394L6.82214 5.48816C7.1347 5.17559 7.55862 5 8.00065 5V3ZM5.40793 4.07394C4.72029 4.76158 4.33398 5.69421 4.33398 6.66667H6.33398C6.33398 6.22464 6.50958 5.80072 6.82214 5.48816L5.40793 4.07394ZM4.33398 6.66667V28H6.33398V6.66667H4.33398ZM5.7812 28.8944L11.1145 26.2278L10.2201 24.4389L4.88677 27.1056L5.7812 28.8944ZM10.2201 26.2278L15.5534 28.8944L16.4479 27.1056L11.1145 24.4389L10.2201 26.2278ZM16.4479 28.8944L21.7812 26.2278L20.8868 24.4389L15.5534 27.1056L16.4479 28.8944ZM20.8868 26.2278L26.2201 28.8944L27.1145 27.1056L21.7812 24.4389L20.8868 26.2278Z" fill="#A2A2A2"/>
<line x1="11" y1="21" x2="21" y2="21" stroke="#A2A2A2" stroke-width="2" stroke-linecap="round"/>
<path d="M21.6282 8.37053C21.129 7.87649 20.3249 7.87649 19.8292 8.37053L14.2581 13.9293L12.1708 11.8507C11.6716 11.3566 10.8674 11.3566 10.3718 11.8507C9.87608 12.3482 9.87608 13.1497 10.3718 13.6438L13.2377 16.4976C13.272 16.5423 13.3098 16.5861 13.3511 16.6273C13.6552 16.9303 14.0744 17.0486 14.4664 16.982C14.723 16.9417 14.97 16.8235 15.1668 16.6273C15.2081 16.5861 15.2459 16.5423 15.2802 16.4967L21.6282 10.1636C22.1239 9.66606 22.1239 8.86457 21.6282 8.37053Z" fill="#A2A2A2"/>
</svg>
