<svg width="24" height="24" viewBox="0 0 24 24" fill="none" xmlns="http://www.w3.org/2000/svg">
<path fill-rule="evenodd" clip-rule="evenodd" d="M0 3.41697C0 2.47045 0.767321 1.70312 1.71384 1.70312H22.2799C23.2265 1.70312 23.9938 2.47045 23.9938 3.41697C23.9938 4.36349 23.2265 5.13081 22.2799 5.13081H1.71384C0.767321 5.13081 0 4.36349 0 3.41697Z" fill="white"/>
<path fill-rule="evenodd" clip-rule="evenodd" d="M0 11.9863C0 11.0398 0.767321 10.2725 1.71384 10.2725H22.2799C23.2265 10.2725 23.9938 11.0398 23.9938 11.9863C23.9938 12.9329 23.2265 13.7001 22.2799 13.7001H1.71384C0.767321 13.7001 0 12.9329 0 11.9863Z" fill="white"/>
<path fill-rule="evenodd" clip-rule="evenodd" d="M10.2832 20.5556C10.2832 19.6091 11.0505 18.8418 11.997 18.8418H22.2801C23.2266 18.8418 23.9939 19.6091 23.9939 20.5556C23.9939 21.5022 23.2266 22.2695 22.2801 22.2695H11.997C11.0505 22.2695 10.2832 21.5022 10.2832 20.5556Z" fill="white"/>
</svg>
