<svg width="32" height="32" viewBox="0 0 32 32" fill="none" xmlns="http://www.w3.org/2000/svg">
<path d="M5.49861 17.1852C4.67096 17.1852 4 17.8561 4 18.6838C4 19.2194 4.28097 19.6893 4.70355 19.9543L8.73124 23.982C9.31648 24.5673 10.2653 24.5673 10.8506 23.982C11.4358 23.3967 11.4358 22.4478 10.8506 21.8626L9.17032 20.1824H20.4848C21.3123 20.1824 21.9834 19.5115 21.9834 18.6838C21.9834 17.8561 21.3123 17.1852 20.4848 17.1852H5.57271C5.55905 17.185 5.54538 17.185 5.53171 17.1852H5.49861Z" fill="#D9DCEA"/>
<path d="M26.5002 14.2358C27.3279 14.2358 27.9988 13.5649 27.9988 12.7372C27.9988 12.2016 27.718 11.7316 27.2954 11.4666L23.2677 7.43893C22.6824 6.85369 21.7336 6.85369 21.1483 7.43893C20.563 8.02418 20.563 8.97304 21.1483 9.55829L22.8286 11.2386H11.5142C10.6866 11.2386 10.0156 11.9095 10.0156 12.7372C10.0156 13.5649 10.6866 14.2358 11.5142 14.2358H26.4262C26.4398 14.2359 26.4535 14.2359 26.4673 14.2358H26.5002Z" fill="#D9DCEA"/>
</svg>
