<svg width="32" height="32" viewBox="0 0 32 32" fill="none" xmlns="http://www.w3.org/2000/svg">
<path fill-rule="evenodd" clip-rule="evenodd" d="M12.065 9.01515C10.9199 9.01515 9.82166 9.47005 9.01195 10.2798C8.20223 11.0895 7.74734 12.1877 7.74734 13.3328C7.74734 14.4779 8.20223 15.5761 9.01195 16.3858C9.82166 17.1956 10.9199 17.6505 12.065 17.6505C13.2101 17.6505 14.3083 17.1956 15.118 16.3858C15.9277 15.5761 16.3826 14.4779 16.3826 13.3328C16.3826 12.1877 15.9277 11.0895 15.118 10.2798C14.3083 9.47005 13.2101 9.01515 12.065 9.01515ZM18.5415 13.3328C18.5424 14.3289 18.3132 15.3118 17.8717 16.2047C17.4302 17.0977 16.7883 17.8765 15.9962 18.4805C18.7422 19.7089 20.7003 22.1926 20.7003 25.2063C20.7003 25.4926 20.5866 25.7672 20.3841 25.9696C20.1817 26.172 19.9072 26.2857 19.6209 26.2857H4.5091C4.22282 26.2857 3.94827 26.172 3.74584 25.9696C3.54341 25.7672 3.42969 25.4926 3.42969 25.2063C3.42969 22.1926 5.38774 19.7089 8.13377 18.4805C7.25839 17.8119 6.56801 16.9311 6.12791 15.9213C5.68781 14.9115 5.51252 13.8062 5.61863 12.7098C5.72474 11.6134 6.10873 10.5622 6.7343 9.65554C7.35987 8.7489 8.20635 8.0168 9.19369 7.52845C10.181 7.0401 11.2766 6.81165 12.3769 6.86469C13.4771 6.91774 14.5456 7.25052 15.4814 7.83158C16.4172 8.41265 17.1893 9.22279 17.7248 10.1854C18.2602 11.148 18.5413 12.2313 18.5415 13.3328ZM5.72236 24.1269C6.3128 21.7555 8.80948 19.8093 12.065 19.8093C15.3205 19.8093 17.8172 21.7555 18.4076 24.1269H5.72236Z" fill="#A2A2A2"/>
<path d="M25.7821 12.5696C25.9845 12.772 26.0982 13.0466 26.0982 13.3328V15.4917H28.2571C28.5433 15.4917 28.8179 15.6054 29.0203 15.8078C29.2227 16.0102 29.3365 16.2848 29.3365 16.5711C29.3365 16.8573 29.2227 17.1319 29.0203 17.3343C28.8179 17.5368 28.5433 17.6505 28.2571 17.6505H26.0982V19.8093C26.0982 20.0956 25.9845 20.3701 25.7821 20.5726C25.5797 20.775 25.3051 20.8887 25.0188 20.8887C24.7325 20.8887 24.458 20.775 24.2556 20.5726C24.0531 20.3701 23.9394 20.0956 23.9394 19.8093V17.6505H21.7806C21.4943 17.6505 21.2198 17.5368 21.0173 17.3343C20.8149 17.1319 20.7012 16.8573 20.7012 16.5711C20.7012 16.2848 20.8149 16.0102 21.0173 15.8078C21.2198 15.6054 21.4943 15.4917 21.7806 15.4917H23.9394V13.3328C23.9394 13.0466 24.0531 12.772 24.2556 12.5696C24.458 12.3671 24.7325 12.2534 25.0188 12.2534C25.3051 12.2534 25.5797 12.3671 25.7821 12.5696Z" fill="#A2A2A2"/>
</svg>
