<svg width="32" height="32" viewBox="0 0 32 32" fill="none" xmlns="http://www.w3.org/2000/svg">
<path d="M8.38467 7.61914C7.3032 7.61914 6.30394 8.15988 5.70312 9.0611L3.45164 12.4257C3.18601 12.8241 3.04688 13.2858 3.04688 13.7665V19.1296C3.04688 19.8695 3.54334 20.5178 4.26116 20.698L6.36086 21.2293C6.66443 22.6997 7.96726 23.8096 9.52307 23.8096C11.0219 23.8096 12.2742 22.7724 12.6347 21.381H20.1734C20.5339 22.7724 21.7861 23.8096 23.285 23.8096C24.7839 23.8096 26.0361 22.7724 26.3966 21.381H27.3326C28.218 21.381 28.9516 20.6474 28.9516 19.762V16.8022C28.9516 15.3191 27.9366 14.0226 26.4978 13.6653L22.1213 12.5522L18.9591 8.78283C18.3424 8.04604 17.4412 7.61914 16.4799 7.61914H8.38467ZM8.38467 9.23819H11.9516V12.4763H5.37426L7.0439 9.97182V9.94652C7.34431 9.49433 7.84077 9.23819 8.38467 9.23819ZM13.5707 9.23819H16.4799C16.9606 9.23819 17.4128 9.45006 17.7195 9.82003L19.9457 12.4763H13.5707V9.23819ZM4.66592 14.0953H21.5647L26.1183 15.2337C26.8424 15.414 27.3326 16.0559 27.3326 16.8022V19.762H26.3966C26.0361 18.3706 24.7839 17.3334 23.285 17.3334C21.7861 17.3334 20.5339 18.3706 20.1734 19.762H12.6347C12.2742 18.3706 11.0219 17.3334 9.52307 17.3334C8.08743 17.3334 6.88263 18.2821 6.46205 19.5849L4.66592 19.1296V14.0953ZM9.52307 18.9525C10.4275 18.9525 11.1421 19.6671 11.1421 20.5715C11.1421 21.4759 10.4275 22.1906 9.52307 22.1906C8.61868 22.1906 7.90402 21.4759 7.90402 20.5715C7.90402 19.6671 8.61868 18.9525 9.52307 18.9525ZM23.285 18.9525C24.1894 18.9525 24.904 19.6671 24.904 20.5715C24.904 21.4759 24.1894 22.1906 23.285 22.1906C22.3806 22.1906 21.6659 21.4759 21.6659 20.5715C21.6659 19.6671 22.3806 18.9525 23.285 18.9525Z" fill="#A2A2A2" stroke="#A2A2A2" stroke-width="0.3"/>
</svg>
